<svg xmlns="http://www.w3.org/2000/svg" xmlns:xlink="http://www.w3.org/1999/xlink" width="515" height="339" version="1.1" viewBox="0 0 515 339"><title>bottom-sheet</title><desc>Created with Sketch.</desc><defs><path id="path-1" d="M95,129 L420,129 C426.627417,129 432,134.372583 432,141 L432,339 L432,339 L83,339 L83,141 C83,134.372583 88.372583,129 95,129 Z"/><filter id="filter-2" width="109.2%" height="115.2%" x="-4.6%" y="-11.4%" filterUnits="objectBoundingBox"><feOffset dx="0" dy="-8" in="SourceAlpha" result="shadowOffsetOuter1"/><feGaussianBlur in="shadowOffsetOuter1" result="shadowBlurOuter1" stdDeviation="4"/><feColorMatrix in="shadowBlurOuter1" type="matrix" values="0 0 0 0 0 0 0 0 0 0 0 0 0 0 0 0 0 0 0.271743881 0"/></filter><filter id="filter-3" width="126.7%" height="126.7%" x="-13.3%" y="-13.3%" filterUnits="objectBoundingBox"><feGaussianBlur in="SourceGraphic" stdDeviation="4"/></filter><filter id="filter-4" width="126.7%" height="250%" x="-13.3%" y="-75%" filterUnits="objectBoundingBox"><feGaussianBlur in="SourceGraphic" stdDeviation="4"/></filter><filter id="filter-5" width="115%" height="250%" x="-7.5%" y="-75%" filterUnits="objectBoundingBox"><feGaussianBlur in="SourceGraphic" stdDeviation="4"/></filter><filter id="filter-6" width="130.8%" height="325%" x="-15.4%" y="-112.5%" filterUnits="objectBoundingBox"><feGaussianBlur in="SourceGraphic" stdDeviation="6"/></filter></defs><g id="Ionic-Component-Library" fill="none" fill-rule="evenodd" stroke="none" stroke-width="1"><g id="bottom-sheet"><rect id="Rectangle" width="515" height="339" x="0" y="0" fill="#7EC699"/><g id="Rectangle"><use fill="#000" fill-opacity="1" filter="url(#filter-2)" xlink:href="#path-1"/><use fill="#FFF" fill-rule="evenodd" xlink:href="#path-1"/></g><rect id="Rectangle" width="55" height="16" x="230" y="145" fill="#D8D8D8" opacity=".518" rx="8"/><rect id="Rectangle" width="90" height="90" x="110" y="213" fill="#D8D8D8" filter="url(#filter-3)" opacity=".239" rx="20"/><rect id="Rectangle" width="90" height="16" x="230" y="218" fill="#D8D8D8" filter="url(#filter-4)" opacity=".239" rx="8"/><rect id="Rectangle" width="160" height="16" x="230" y="250" fill="#D8D8D8" filter="url(#filter-5)" opacity=".239" rx="8"/><rect id="Rectangle" width="117" height="16" x="230" y="282" fill="#D8D8D8" filter="url(#filter-6)" opacity=".239" rx="8"/></g></g></svg>