<svg xmlns="http://www.w3.org/2000/svg" xmlns:xlink="http://www.w3.org/1999/xlink" width="517" height="339" version="1.1" viewBox="0 0 517 339"><title>feature-discovery</title><desc>Created with Sketch.</desc><defs><path id="path-1" d="M395,91 C438.53137,91 479.443158,102.215762 515.003286,121.915206 L515,339 L147,339 C147,202.033382 258.033382,91 395,91 Z"/><filter id="filter-2" width="103.3%" height="105.2%" x="-2.7%" y="-5.2%" filterUnits="objectBoundingBox"><feGaussianBlur in="SourceGraphic" stdDeviation="0"/></filter><filter id="filter-3" width="106.8%" height="110.5%" x="-4.5%" y="-7.9%" filterUnits="objectBoundingBox"><feOffset dx="-4" dy="-7" in="SourceAlpha" result="shadowOffsetOuter1"/><feGaussianBlur in="shadowOffsetOuter1" result="shadowBlurOuter1" stdDeviation="3"/><feColorMatrix in="shadowBlurOuter1" type="matrix" values="0 0 0 0 0 0 0 0 0 0 0 0 0 0 0 0 0 0 0.118853802 0"/></filter></defs><g id="Ionic-Component-Library" fill="none" fill-rule="evenodd" stroke="none" stroke-width="1"><g id="feature-discovery"><rect id="Rectangle" width="515" height="339" x="0" y="0" fill="#FAFAFA"/><g id="Combined-Shape" filter="url(#filter-2)"><use fill="#000" fill-opacity="1" filter="url(#filter-3)" xlink:href="#path-1"/><use fill="#6068DA" fill-rule="evenodd" xlink:href="#path-1"/></g><path id="Combined-Shape" fill="#EFF0FF" d="M407,256 C439.5848,256 466,282.4152 466,315 C466,323.546494 464.182812,331.668561 460.913737,339.000902 L353.086263,339.000902 C349.817188,331.668561 348,323.546494 348,315 C348,282.4152 374.4152,256 407,256 Z"/><path id="Line" stroke="#6068DA" stroke-linecap="square" stroke-width="4" d="M407,306 L407,326"/><path id="Line" stroke="#6068DA" stroke-linecap="square" stroke-width="4" d="M407,306 L407,326" transform="translate(407.000000, 316.000000) rotate(90.000000) translate(-407.000000, -316.000000)"/></g></g></svg>